<svg width="86" height="94" viewBox="0 0 86 94" fill="none" xmlns="http://www.w3.org/2000/svg">
<path d="M16.1656 23.1081C16.2841 23.4932 16.5366 23.9017 16.6333 24.3603C17.5638 28.7932 18.9947 33.1823 19.7522 37.6637C20.5082 42.1466 22.1246 46.4527 22.7122 50.9701C22.7278 51.0844 23.01 51.3771 22.8681 51.5962C22.5844 51.5023 22.533 51.1971 22.4005 50.9701C20.0203 46.1538 18.1109 40.9335 16.1547 35.9544C14.197 30.9768 11.2245 26.749 8.83968 22.0124C8.61834 21.571 8.77889 21.2658 8.06032 21.2298C8.32686 20.433 7.92939 18.9648 7.1251 19.9775C7.20927 19.6457 7.41502 19.2951 7.59271 19.0384C7.25447 18.4952 6.95831 18.1055 6.50161 17.6296C5.40739 17.5764 5.11435 19.6285 4.43631 20.2515C3.75827 20.8744 3.0397 22.1486 2.40998 22.9124C1.78182 23.6779 1.01649 24.7329 0.578491 25.6126C0.901145 25.384 1.34694 25.4044 1.66959 25.6126C1.45761 26.2982 1.32512 26.8225 0.578491 26.7083C0.877765 27.0119 1.08351 27.6553 0.734363 27.9605C0.386769 30.7373 2.83551 33.5376 3.80347 36.1485C4.77299 38.7578 6.70736 41.1026 7.60362 43.7589C8.50144 46.4136 10.2456 48.9979 11.1279 51.6463C12.0101 54.2948 14.3856 56.9198 14.1393 59.7357C14.0629 60.6076 14.1393 61.5217 14.1393 62.3967C14.1393 62.6049 14.1409 62.8146 14.1393 63.0228C14.1783 63.3061 14.2734 63.7413 14.2952 64.1185C14.5773 68.855 16.8468 74.501 19.5558 78.2452C22.2633 81.9893 24.232 87.1579 29.103 88.0673C29.6813 88.1753 30.3079 88.4273 30.8176 88.5369C31.7045 88.6371 32.5524 88.7279 33.4674 88.6934C34.0285 88.5478 34.7907 88.3271 35.3378 88.2238C35.6153 88.083 35.9754 88.0501 36.2731 87.9108C37.6089 87.2831 38.9634 86.5818 40.2166 87.7073C41.4714 88.8312 42.3988 88.936 43.7549 89.6326C43.9466 89.678 44.182 89.6185 44.3784 89.6326C44.8709 89.6686 45.2232 89.9691 45.6254 90.1022C45.9527 90.1648 46.2364 90.2102 46.5606 90.2587C46.6791 90.2368 46.9316 89.9613 46.8723 89.7891C45.4368 89.57 43.4463 89.2491 42.1962 88.2238C43.9653 88.9235 45.9137 89.0707 47.6517 89.4761C48.5386 89.3853 49.3148 89.5856 50.1456 89.4761C50.9343 89.3712 51.7153 89.1693 52.4837 89.0065C54.1437 88.6559 55.8256 87.856 56.8481 86.502C57.1131 86.153 57.6384 85.1199 57.9392 84.9367C58.3024 84.716 58.6344 84.8804 58.5627 85.4063C58.8308 85.1809 59.3873 85.1559 59.4979 85.5629C60.6327 86.2766 61.9311 86.8354 63.2388 87.2847C63.6067 87.4115 64.0104 87.64 64.3299 87.7542C66.4155 88.2896 68.5135 89.0331 70.5648 89.6326C70.9545 89.7469 71.3535 89.9942 71.6559 90.1022C72.8639 90.398 74.2106 90.6438 75.3625 91.0758C76.5129 91.5094 77.7474 91.7316 78.8743 92.0885C79.9997 92.447 81.2966 92.8351 82.3768 93.1106C83.4569 93.3877 84.9751 94.6196 85.2167 93.2327C84.7881 93.466 83.2418 92.6489 82.5544 92.4626C81.8686 92.2748 80.6201 92.0275 79.7612 91.824C78.9024 91.6205 77.9999 91.068 76.954 91.0429C75.9081 91.0163 75.1692 90.2274 74.1389 90.1131C73.1086 90.0004 72.1952 89.3994 71.1883 89.163C72.4275 88.839 73.9254 90.0803 75.241 89.6326C76.4115 90.4872 78.2165 90.6469 79.7098 91.2495C81.203 91.8521 83.0813 92.4219 84.5932 92.4501C84.5371 91.5657 84.1287 91.0492 83.9698 90.2587C83.9526 89.9065 83.5676 89.2835 83.5021 89.163C81.2763 85.2279 80.8087 81.1081 78.7107 77.2262C76.6111 73.3458 71.0464 73.4538 67.2416 71.995C63.4352 70.5361 59.0007 69.3231 55.4453 67.2491C56.1638 63.6912 57.576 60.2413 58.5643 56.7632C59.5525 53.2836 60.6872 49.9073 61.6801 46.4308C61.6365 46.207 61.3886 45.8423 61.0566 45.9612C59.7021 51.1924 57.8769 56.4408 56.3805 61.614C56.0298 62.4906 55.7632 63.3734 55.4453 64.275C54.9325 63.3218 56.0095 62.3325 55.9129 61.301C56.1623 60.1552 56.647 58.5023 57.1256 57.3533C57.6025 56.2044 57.6696 54.3809 58.4068 53.4746C58.4427 53.4307 58.5471 53.3587 58.5627 53.318C59.4761 51.0468 59.819 48.4328 60.589 46.1178C61.359 43.8011 62.2288 40.9868 61.836 38.6044C60.6015 40.4718 60.9242 43.3582 59.6538 45.0221C60.0887 43.0216 60.4939 40.7676 60.9008 38.7609C61.306 36.7527 62.1275 34.8524 62.2023 32.8598C62.2771 30.8672 63.6348 29.64 63.3947 27.4909C65.0189 27.8775 62.6949 29.9969 63.7065 30.9345C62.779 31.4291 62.8492 33.021 62.4938 34.0995C62.1384 35.1796 62.1867 36.6071 61.6801 37.6652C63.415 37.2974 63.0518 34.7241 63.6706 33.2464C64.2894 31.7704 63.92 29.316 65.1093 28.2735C64.0494 25.251 61.0551 21.9592 58.5627 19.821C57.7428 19.1182 56.8886 18.3168 56.2246 17.4731C55.7118 16.7014 55.2177 16.0362 54.3542 15.7513C53.6231 20.2624 52.2686 24.5748 51.3926 29.0562C51.3116 29.4694 51.1884 29.8091 51.0809 30.1519C51.017 30.4775 50.9811 30.7592 50.925 31.091C50.7941 31.8533 50.5291 32.6031 50.3015 33.2824C49.5502 36.9248 48.4965 40.4796 47.6517 44.0829C47.3664 42.3079 47.4958 40.1963 47.4958 38.2913C47.4381 37.6887 47.234 37.0313 47.4958 36.413C47.4958 36.3347 47.4958 36.1782 47.4958 36.0999C47.2542 35.5302 47.3399 34.7444 47.3399 34.0651C47.3399 32.5515 47.3399 31.0394 47.3399 29.5258C47.2636 28.74 47.2184 27.7523 47.1841 26.8648C47.0703 23.8704 46.9347 20.8823 46.8723 17.7861C46.8458 17.5122 46.7243 17.0661 46.7165 16.6905C46.7024 15.9595 46.7305 15.23 46.7165 14.4991C46.69 14.2298 46.5762 13.7728 46.5606 13.4034C46.4671 11.0977 46.0478 8.983 45.4695 6.82917C45.4601 6.79161 45.3339 6.72743 45.3136 6.67265C45.1765 6.30481 44.0261 4.56421 44.2225 4.48125C43.0893 2.56691 41.0007 2.75944 39.0788 2.44639C37.1584 2.13333 35.0744 1.58078 33.1556 1.19416C32.8408 2.97389 33.045 5.10267 32.9998 6.82917C33.059 7.5132 33.1556 8.38663 33.1556 9.1771C33.1556 10.2728 33.1556 11.3685 33.1556 12.4642C33.1977 12.8946 33.3115 13.4941 33.3115 14.0295C33.3115 17.4825 33.6233 20.9011 33.6233 24.3603C33.695 25.1101 33.6248 26.1448 33.6233 26.8648C33.7355 28.0732 33.7791 29.3536 33.7791 30.6215C33.8259 31.1036 33.935 31.7563 33.935 32.3433C33.935 36.9499 34.4026 41.5064 34.4026 46.1178C34.4338 46.448 34.5678 46.9317 34.5585 47.37C34.5522 47.7143 34.6816 48.2481 34.4026 48.4657C34.3621 48.0837 34.1283 47.7582 34.0909 47.37C34.0784 47.2933 34.0909 47.2134 34.0909 47.2134C33.656 44.8765 32.794 42.6632 32.3763 40.3262C32.2859 40.0163 32.1331 39.6046 32.0645 39.2305C31.3709 35.4159 30.1707 31.7125 29.2589 27.9605C29.1435 27.6333 28.8863 27.2952 28.7912 26.8648C28.4592 25.3621 27.9028 23.9612 27.5443 22.482C27.3806 22.0484 27.2138 21.5647 27.0767 21.0732C26.2879 18.2338 25.1813 15.3443 24.3224 12.5691C23.4635 9.79538 22.6515 7.11875 21.1535 4.63778C20.9525 4.30438 20.4506 3.87862 20.6859 3.54208C20.7187 3.49512 20.8246 3.42625 20.8418 3.38555C20.8698 3.31981 20.8652 3.14294 20.8418 3.0725C20.6984 2.77823 20.1793 2.73909 19.9066 2.75944C19.9705 2.62952 20.0578 2.46517 20.2183 2.44639C20.0889 1.50565 19.2613 1.37417 18.6596 0.881104C16.4634 2.5857 14.4682 4.70039 12.2689 6.35959C12.1161 6.03714 11.9259 5.55973 11.4895 5.57695C12.7676 11.5 14.9233 17.1882 16.1656 23.1081ZM19.4389 3.38555C18.9448 4.30438 17.9145 4.59865 17.2178 5.53782C16.5226 6.47699 15.4518 6.45664 14.7238 7.41616C13.9975 8.37567 12.512 8.24732 14.3419 7.18919C16.1703 6.12949 17.5638 4.2402 19.4389 3.38555ZM41.1051 5.89001C40.4489 6.73213 38.8574 5.76635 37.9767 5.58791C37.0961 5.41103 35.9286 5.36251 35.182 4.63778C37.1304 4.727 39.1099 5.68652 41.1051 5.89001ZM41.261 7.45529C41.5462 7.98748 41.5602 8.67464 41.5727 9.33363C41.5836 9.90652 41.5727 10.4825 41.5727 11.0554C41.5727 11.7332 41.5727 12.4125 41.5727 13.0903C41.6491 13.8792 41.7286 14.8544 41.7286 15.7513C41.7286 16.6388 41.7286 17.5247 41.7286 18.4123C41.8096 19.2528 41.8844 20.2828 41.8844 21.2298C41.8844 22.9782 42.0403 24.6296 42.0403 26.3952C42.1666 27.7022 42.2554 29.1908 42.3521 30.6215C42.469 32.3354 42.6295 34.0306 42.6638 35.7869C42.6903 36.0608 42.8119 36.5069 42.8197 36.8826C42.8306 37.4038 42.8197 37.9266 42.8197 38.4479C42.8508 38.7766 42.9755 39.2665 42.9755 39.7001C42.9755 40.3262 42.9755 40.9523 42.9755 41.5784C43.0098 41.9353 43.0878 42.538 43.1314 42.9872C43.1875 43.571 43.2873 44.3318 43.2873 45.0221C43.2873 45.3868 43.2873 45.753 43.2873 46.1178C43.2873 48.1276 43.3231 50.4144 44.115 52.1738C44.9052 53.9348 44.966 55.5533 45.9371 57.2313C46.1662 57.4942 46.9955 57.7541 46.5606 58.1704C47.8263 58.8638 48.4155 56.0886 48.7085 55.0054C49.0015 53.9223 49.572 51.9516 49.9866 50.6539C50.3997 49.3563 50.6522 47.5234 51.0809 46.1178C51.5095 44.7121 51.9413 43.1969 52.2935 41.7005C52.6458 40.2026 52.8453 38.5668 53.2615 37.0375C53.6777 35.5083 53.9785 33.8068 54.1983 32.1867C54.256 31.7657 54.3994 31.5747 54.51 31.2476C54.7781 30.0689 54.9434 28.8527 55.1335 27.6474C55.1242 27.5441 54.9356 27.1058 54.8218 27.0213C54.7423 27.7038 54.5459 28.3581 54.51 29.0562C54.5085 29.1344 54.51 29.2127 54.51 29.2127C54.0424 30.0345 54.3012 32.8066 53.5748 33.1259C53.5468 33.1384 53.5748 33.2824 53.5748 33.2824C52.8921 37.4555 51.7246 41.3906 50.6133 45.1786C50.6507 43.5961 51.2258 41.5957 51.7044 40.0132C51.7293 39.9427 51.6934 39.7768 51.7044 39.7001C51.8306 38.7781 52.0317 37.443 52.3263 36.568C52.6224 35.6945 52.6115 34.1073 53.1072 33.439C53.1103 33.3607 53.1072 33.2824 53.1072 33.2824C53.1165 32.8473 53.1399 31.9159 53.5748 31.7172C53.6107 31.6608 53.5748 31.5606 53.5748 31.5606C53.1882 31.0582 53.9614 29.3677 54.0409 28.585C54.1219 27.804 54.3698 26.1573 54.6659 25.456C54.6706 25.3778 54.6488 25.2165 54.6659 25.143C54.842 24.376 54.9434 23.4994 55.1335 22.7951C55.3175 22.1142 55.3689 21.5757 55.4453 20.9167C55.5528 19.9854 55.7929 18.9883 55.6011 18.0992C55.9846 18.2307 56.1685 18.8787 56.5364 19.1949C56.7452 19.5173 56.9354 19.9415 57.1599 20.2906C58.0249 21.6367 59.925 22.7763 60.589 24.2038C60.8026 24.6609 60.7792 25.1633 60.589 25.6126C60.589 25.6908 60.5844 25.8473 60.589 25.9256C60.6436 26.7161 60.2882 27.3046 60.1214 27.9605C59.7115 30.778 58.6983 33.4343 58.251 36.2565C58.1886 36.6525 58.1325 37.0407 57.9392 37.3522C57.908 37.4023 57.7896 37.4758 57.7833 37.5087C57.3999 40.8662 55.9596 43.9905 55.4468 47.3715C54.934 50.751 53.9583 54.1445 53.4189 57.5443C53.3535 57.9622 53.1618 58.4569 53.1072 58.7965C52.995 60.4416 52.5086 61.9099 52.172 63.4924C52.1112 64.311 52.2094 65.5179 52.3278 66.3099C53.2054 69.1321 55.8552 70.605 58.2899 71.9058C60.7231 73.2081 63.694 74.5323 66.3563 75.3885C67.039 75.6077 67.7544 75.9379 68.3826 76.1712C70.1705 76.6501 71.6731 77.4156 73.5373 77.7255C75.4031 78.0354 77.2486 78.53 77.4216 80.5555C77.5946 82.581 78.1557 84.0508 78.826 85.8759C78.9211 86.1326 79.4479 86.9419 78.826 86.6586C77.738 86.1624 77.9251 84.5376 76.9166 83.8802C75.9065 83.2228 74.4398 83.2932 73.1803 82.9363C71.9193 82.5794 70.0629 82.6514 68.6943 82.5888C69.1963 84.4828 67.0343 83.1085 65.9385 82.6953C64.8428 82.282 63.4306 81.7279 62.2911 81.1926C61.1533 80.6557 59.7255 80.4585 58.6796 79.6539C57.6353 78.8478 56.2605 78.8948 54.9777 78.3626C54.8997 78.3594 54.7438 78.3673 54.6659 78.3626C54.4321 78.3485 53.5405 78.2467 53.4189 78.5191C53.3535 78.7727 53.5 78.9308 53.5748 79.1452C53.7509 79.6492 53.8476 79.9482 53.7307 80.554C51.3536 81.3069 48.7475 82.2538 46.2146 82.1537C43.6801 82.0535 41.0755 81.0736 38.8153 80.1924C36.5536 79.3127 35.634 76.9882 33.7791 75.8581C34.3294 77.475 33.988 79.7056 32.9998 81.0235C32.4277 81.5698 31.6998 81.9564 30.9734 82.2758C28.5434 83.3417 25.4306 81.8171 23.2266 80.3505C21.0242 78.8822 19.4078 76.7284 18.6627 74.1332C17.9192 71.5364 16.945 67.9707 16.945 65.0577C16.8593 64.1701 16.8608 63.1167 16.945 62.2402C16.945 58.3739 14.3045 55.0352 12.9048 51.5837C11.5051 48.1323 9.58475 44.8796 8.25049 41.3875C6.91623 37.8953 5.60535 34.2733 3.69592 31.091C3.84712 30.7639 3.92038 30.4305 4.16354 30.1519C4.30694 29.8216 4.39578 29.4178 4.47528 29.0562C3.83621 29.2017 3.79412 29.9327 3.54005 30.4649C2.67808 30.1221 3.25013 29.1344 3.69592 28.7431C4.04352 28.3064 4.23212 27.9057 4.47528 27.4909C5.02551 26.5502 5.87033 26.1338 6.18987 25.143C6.366 25.8395 7.04872 25.2244 7.28097 25.7691C8.13514 26.7803 8.20061 28.4066 8.98308 29.5383C9.76712 30.67 10.188 32.1351 10.76 33.3889C11.3321 34.6427 11.9665 35.9638 12.5447 37.2316C13.1246 38.4995 13.6218 39.9067 14.2593 41.1448C14.8984 42.383 15.2382 43.762 15.9038 44.972C16.5694 46.1819 17.0089 47.6283 17.7119 48.7913C18.4164 49.9527 18.9651 51.3708 19.6431 52.4884C20.3196 53.6045 20.7155 55.2684 21.6087 56.1481C22.5018 57.0293 22.8385 58.9249 23.9592 59.4226C24.0605 59.468 24.3146 59.4226 24.4268 59.4226C25.1625 59.1863 23.967 58.892 24.1151 58.4835C24.3224 58.4835 24.5313 58.4835 24.7386 58.4835C25.253 58.2863 25.2919 58.4005 25.6738 58.64C25.8032 58.8435 25.9996 59.0219 26.2973 58.9531C27.0548 58.1313 26.037 56.3719 25.9341 55.248C25.8312 54.1242 25.2218 52.6199 25.0503 51.4397C24.9163 50.9106 24.6918 50.3158 24.5827 49.7179C24.0185 46.6124 23.0801 43.5976 22.5564 40.4827C22.4317 40.0711 22.3148 39.7267 22.2446 39.2305C22.1246 38.3915 21.9204 37.5744 21.777 36.7261C21.5806 36.0467 21.2923 35.3001 21.1535 34.5347C20.7374 32.2462 19.9144 30.0689 19.4389 27.804C19.2425 27.2217 18.9869 26.5689 18.8155 25.9256C18.3821 24.2946 17.9473 22.5931 17.5685 20.9167C17.1897 19.2403 16.1906 17.5921 16.0441 15.8734C15.8991 14.1531 14.4822 12.4407 14.6069 10.7424C14.6319 10.3933 14.8672 10.3542 15.3863 10.1163C16.5553 9.57938 17.9114 8.81708 18.6596 7.76834C19.8738 9.57937 20.6953 11.8616 21.5853 14.0655C22.4753 16.2694 22.9663 18.8098 23.8018 21.0748C24.6388 23.3398 25.3449 25.7268 26.0354 28.0669C26.7259 30.4054 27.418 32.9459 28.001 35.3283C28.5839 37.7122 29.435 40.0961 30.1598 42.3955C30.8846 44.6965 31.4707 47.06 32.6522 49.1278C33.8337 51.1955 34.2701 53.4605 35.9613 55.1964C36.3105 55.2872 36.4741 55.0132 36.7407 54.8833C36.8217 55.2324 36.5006 55.4672 36.5848 55.8225C36.7921 55.9102 37.0602 56.0714 37.3642 55.979C37.3642 55.8225 37.3642 55.666 37.3642 55.5094C37.5684 54.8786 37.3642 53.8299 37.3642 53.1615C37.3642 52.4838 37.3642 51.8044 37.3642 51.1267C37.2987 50.4395 37.2083 49.5723 37.2083 48.7787C37.2083 44.7794 36.7407 40.8052 36.7407 36.8826C36.7142 36.6087 36.5926 36.1626 36.5848 35.7869C36.5116 35.178 36.4445 34.1809 36.2731 33.5955C35.9909 34.112 36.4991 34.7241 36.1172 35.1608C35.4688 33.6816 36.0751 32.0318 35.8055 30.4649C36.4882 30.6935 35.6901 33.439 36.4289 32.9694C36.3027 31.5732 36.563 30.1394 36.4289 28.7431C36.3822 28.2516 36.3822 27.6599 36.4289 27.1778C36.4289 26.7599 36.4289 26.3435 36.4289 25.9256C36.3978 25.5969 36.2731 25.107 36.2731 24.6734C36.2731 23.4728 36.2731 22.2738 36.2731 21.0732C36.217 20.4894 36.1172 19.7287 36.1172 19.0384C36.1172 18.4123 36.1172 17.7861 36.1172 17.16C36.0658 16.6278 35.9613 15.9203 35.9613 15.2817C35.9613 13.0668 35.8055 10.9427 35.8055 8.70751C35.8055 8.71377 35.6496 8.70751 35.6496 8.70751C35.3799 8.44611 35.4937 7.83878 35.4937 7.45529C35.4937 7.09214 35.5171 6.72117 35.4937 6.35959C35.4688 5.95888 35.383 5.65678 35.3378 5.26389C37.107 6.36272 39.2175 6.61004 41.261 6.9857C41.261 7.14223 41.261 7.29876 41.261 7.45529ZM19.2831 6.35959C19.2285 5.16215 18.1624 6.37211 19.2831 6.35959ZM18.3478 6.51612C18.2621 7.05614 17.6371 7.748 17.0619 8.04227C16.4867 8.33654 15.6762 9.31641 15.2304 8.86404C15.313 9.40406 14.6178 9.71869 14.1393 9.64668C15.4003 8.55098 16.9512 7.56016 18.3478 6.51612ZM54.3542 23.4212C54.1048 23.9001 53.9925 24.4245 54.0424 24.9864C53.3862 24.8487 53.7541 23.4666 54.3542 23.4212ZM61.836 25.143C62.087 25.5108 62.659 25.6329 62.4595 26.2387C61.7394 25.0287 61.8017 26.5564 61.691 27.3453C61.5819 28.1342 61.6209 29.2581 61.2125 29.9953C60.6607 29.6917 61.1237 28.3784 61.2452 27.6114C61.3668 26.846 61.6583 25.7409 61.836 25.143ZM3.38418 27.0213C3.17999 27.6177 3.05061 28.5255 2.29308 28.5866C2.38192 27.9887 2.8963 27.278 3.38418 27.0213ZM9.77491 29.0562C9.26054 28.5177 8.95659 27.7304 8.68381 27.0213C9.41017 27.4502 9.53175 28.3502 9.77491 29.0562ZM53.2631 27.804C53.9801 27.062 52.9482 26.9227 53.2631 27.804ZM35.9613 29.9953C35.754 29.28 35.6714 28.2188 35.8055 27.4909C36.1562 28.1828 35.8662 29.1845 35.9613 29.9953ZM61.2125 30.1519C60.8556 32.1053 60.5781 33.9993 59.8097 35.7869C59.1737 34.1715 61.0582 32.3167 60.2773 30.778C60.974 31.0253 60.5017 29.914 61.2125 30.1519ZM44.3784 37.5087C43.9887 35.3236 43.8671 33.0899 43.9108 30.9345C44.7322 33.0054 44.408 35.3846 44.3784 37.5087ZM51.8602 34.2216C51.6966 33.2198 52.0862 32.1069 52.4837 31.091C52.5819 31.9786 52.4214 33.3983 51.8602 34.2216ZM58.8744 39.387C58.318 42.2985 57.4622 45.1207 56.8481 47.9961C56.1482 45.3492 58.7762 42.012 58.0951 39.387C59.2345 39.3135 58.7716 36.7761 59.6538 35.9434C59.4917 36.8873 60.0139 39.4543 58.8744 39.387ZM44.5343 40.1697C44.2942 39.8316 44.2693 39.3229 44.3784 38.9175C44.6948 39.1945 44.461 39.7752 44.5343 40.1697ZM43.9108 39.8566C44.5202 40.9523 43.2826 40.8005 43.9108 39.8566ZM50.3015 41.2654C50.2173 41.9134 49.9383 42.5004 49.8339 43.1437C49.4582 42.6287 49.7747 41.4876 50.3015 41.2654ZM49.9898 47.8396C49.3226 50.4927 48.6197 53.3932 47.8076 56.1356C47.0952 55.0352 48.1863 53.4871 48.3968 52.1879C48.6072 50.8887 49.067 49.1888 49.5222 48.1526C49.7747 47.2448 49.9352 46.2461 50.4574 45.4916C50.5899 46.2038 50.2922 47.1227 49.9898 47.8396ZM58.4068 49.5614C58.3694 48.4954 58.8464 47.0381 59.3421 45.9612C59.6803 47.1195 58.5674 48.3467 58.4068 49.5614ZM47.9634 49.7179C48.0351 50.9075 47.2106 50.3878 47.9634 49.7179ZM23.1799 56.1356C22.7465 56.0886 22.5704 55.4421 22.5564 55.0399C22.759 55.378 23.2812 55.6456 23.1799 56.1356ZM76.7997 77.7364C72.8873 76.935 68.4574 75.9176 64.6417 74.1363C66.5823 74.3053 68.5743 75.2383 70.5991 75.8237C72.6254 76.4075 74.803 76.9961 76.7997 77.7364ZM37.0524 81.0235C36.6861 80.1204 36.0767 81.1034 37.0524 81.0235ZM71.0324 88.8499C67.569 88.3913 63.3152 87.2518 60.1214 85.2498C63.7298 86.5255 67.4115 87.5805 71.0324 88.8499ZM55.9129 85.5629C55.757 86.0857 55.1912 86.6679 54.6659 86.8151C55.054 86.3627 55.2816 85.7053 55.9129 85.5629ZM53.2631 87.5977C52.942 88.1299 52.4011 88.0407 52.4837 88.6934C52.0114 88.7216 52.013 88.1127 51.5485 88.0673C51.2695 88.2411 51.4113 88.9094 50.925 88.8499C50.1643 88.0798 48.495 89.0018 47.5457 88.6402C46.598 88.2802 45.27 88.9564 44.5343 87.9108C47.2947 88.4571 50.3748 88.1315 53.2631 87.5977Z" fill="white"/>
<path d="M20.8417 93.3892C19.7054 93.0151 18.6595 91.9523 17.6853 91.2369C16.7111 90.52 15.3815 89.7014 14.7159 88.7403C14.0488 87.7808 12.1518 87.2752 12.1129 85.8758C11.6016 85.9306 10.8394 84.4937 10.5931 83.9584C10.3453 83.4246 9.86677 81.7388 10.0865 81.18C10.615 82.7766 11.1356 84.4123 12.2688 85.7193C13.2352 87.2235 15.0651 88.0187 16.0097 89.476C16.033 89.512 16.1655 89.476 16.1655 89.476C16.934 89.8532 17.5497 90.6922 18.1919 91.1978C18.4132 91.3715 18.6034 91.5171 18.8154 91.6674C19.5526 92.1886 20.5112 92.7991 21.4652 92.7631C21.9858 92.5846 20.279 91.2385 19.6337 90.8456C18.9899 90.4512 17.6229 89.4259 17.1008 88.8499C18.3883 89.5589 20.0935 90.6484 21.1534 91.8239C21.8143 91.9225 21.7831 91.2933 22.2445 91.5108C22.2445 91.0929 22.2445 90.6766 22.2445 90.2586C17.8427 87.4255 12.9826 83.8691 11.1777 78.6755C8.16777 81.2802 10.4404 85.2122 12.6195 87.5585C14.7985 89.9064 17.3813 91.8458 19.9065 93.7022C20.2135 93.5254 20.4816 93.4001 20.8417 93.3892ZM16.9449 88.5368C14.8235 87.3269 12.5353 85.3076 11.6453 82.9018C13.2679 84.9648 14.9404 86.9778 16.9449 88.5368Z" fill="white"/>
<path d="M6.96895 87.5978C6.90971 87.8388 7.1934 87.9734 7.12482 88.2239C6.81151 88.3522 6.89569 87.939 6.6572 87.9108C6.57147 88.022 6.41872 88.4696 6.34546 88.5369C7.10299 88.8672 7.64543 90.8035 8.56663 91.1588C9.48783 91.5157 10.3202 93.5396 11.4892 93.0762C12.7066 91.4609 11.4378 90.3808 10.0474 89.5152C8.65703 88.6481 7.97899 86.1781 6.96895 87.5978ZM11.0216 91.9806C9.87439 91.7176 8.92046 90.4356 8.21592 89.6326C9.33507 90.3574 10.2329 91.2793 11.0216 91.9806Z" fill="black"/>
</svg>
